<svg id="Lag_1" data-name="Lag 1" xmlns="http://www.w3.org/2000/svg" viewBox="0 0 1328.92 257.23"><defs><style>.cls-1{isolation:isolate;}.cls-2{fill:none;stroke:#000;stroke-miterlimit:10;stroke-width:12.63px;}</style></defs><title>Tegnebræt 2</title><g id="ANNE-KATHRINE_JESSIEN" data-name="ANNE-KATHRINE JESSIEN" class="cls-1"><g class="cls-1"><path d="M38.21,192.1H31l31.52-76.25h5.72L99.72,192.1H92.1L83,170H47.24ZM65,126.27,49.78,163.76H80.41Z"/><path d="M114.47,115.85,160.6,178V115.85h6.61V192.1h-4.83L116.25,130V192.1h-6.61V115.85Z"/><path d="M188.56,115.85,234.69,178V115.85h6.61V192.1h-4.83L190.34,130V192.1h-6.61V115.85Z"/><path d="M301,115.85v6.23H264.81V148.9h29.87v6.22H264.81v30.76H301v6.22H257.82V115.85Z"/><path d="M332.81,157.41v5.85H310.06v-5.85Z"/><path d="M394.7,192.1l-40.79-37.49V192.1h-7V115.85h7v37.24l37-37.24h8.51l-37.49,37.62,42.2,38.63Z"/><path d="M411.48,192.1h-7.25l31.52-76.25h5.72L473,192.1h-7.63L456.21,170H420.5Zm26.81-65.83L423,163.76h30.63Z"/><path d="M465.62,122.08v-6.23H527v6.23H499.81v70h-7v-70Z"/><path d="M543.4,115.85V148.9h45.49V115.85h7V192.1h-7v-37H543.4v37h-7V115.85Z"/><path d="M665.53,192.1h-8.26l-21.86-31.51h-16V192.1h-7V115.85h23.64c16.39,0,23.51,10.42,23.51,22.37,0,10.29-5.21,19.19-16.78,21.6Zm-13-53.88c0-7.88-3.94-16.14-16.52-16.14H619.4v32.28h16.65C648.63,154.36,652.57,146.23,652.57,138.22Z"/><path d="M682.94,115.85V192.1h-7V115.85Z"/><path d="M704.29,115.85,750.43,178V115.85H757V192.1H752.2L706.07,130V192.1h-6.61V115.85Z"/><path d="M816.77,115.85v6.23H780.55V148.9h29.86v6.22H780.55v30.76h36.22v6.22H773.56V115.85Z"/><path d="M862,182.65c0,7.17-3.56,12.64-13.47,12.64a16.33,16.33,0,0,1-8.77-2.78v-4.58a15.1,15.1,0,0,0,7.88,2.58c5.34,0,7.37-1.79,7.37-8.36v-66.3h7Z"/><path d="M921.74,115.85v6.23H885.52V148.9h29.87v6.22H885.52v30.76h36.22v6.22H878.53V115.85Z"/><path d="M933.31,178.25a32.8,32.8,0,0,0,22.37,9.28c9.4,0,17-5.72,17-14.74,0-8.52-4.2-13.73-18.68-17.67-13-3.56-20.08-11.43-20.08-21.86s9-19.06,23-19.06A34,34,0,0,1,976,120.56l-1.52,6c-5.09-3.56-12.08-6.1-17.54-6.1-9.91,0-15.89,5.34-15.89,12.83,0,6.23,3.56,11.7,15.89,15,14.87,3.94,22.87,11.31,22.87,23.64,0,14.49-12.32,21.86-24.14,21.86-11.06,0-19.57-4.45-23.77-8.52Z"/><path d="M990.12,178.25a32.8,32.8,0,0,0,22.37,9.28c9.4,0,17-5.72,17-14.74,0-8.52-4.2-13.73-18.69-17.67-13-3.56-20.08-11.43-20.08-21.86s9-19.06,23-19.06a34,34,0,0,1,19.06,6.36l-1.53,6c-5.08-3.56-12.07-6.1-17.53-6.1-9.91,0-15.89,5.34-15.89,12.83,0,6.23,3.56,11.7,15.89,15,14.87,3.94,22.87,11.31,22.87,23.64,0,14.49-12.32,21.86-24.14,21.86-11.06,0-19.57-4.45-23.77-8.52Z"/><path d="M1056.33,115.85V192.1h-7V115.85Z"/><path d="M1116.06,115.85v6.23h-36.22V148.9h29.87v6.22h-29.87v30.76h36.22v6.22h-43.21V115.85Z"/><path d="M1134.87,115.85,1181,178V115.85h6.61V192.1h-4.83L1136.65,130V192.1h-6.6V115.85Z"/></g></g><g id="Group_11" data-name="Group 11"><path id="Path_7" data-name="Path 7" class="cls-2" d="M1145.48,70.83c52.09-2.86,95.89,33.94,99.88,78.11,4.38,48.42-40,94.83-97.52,93.49"/><path id="Path_8" data-name="Path 8" class="cls-2" d="M1222.08,23.65l26.27,107.07A427.7,427.7,0,0,1,1277.42,21"/><path id="Path_9" data-name="Path 9" class="cls-2" d="M1244.26,150.28a267.51,267.51,0,0,1,32.26-56.75,273.16,273.16,0,0,1,26.81-30.95"/></g></svg>
