<svg id="Lag_1" data-name="Lag 1" xmlns="http://www.w3.org/2000/svg" viewBox="0 0 283.46 283.46"><defs><style>.cls-1{fill:#fff;}</style></defs><title>mail</title><rect class="cls-1" x="-0.41" y="1.4" width="283.46" height="283.46"/><rect x="64.1" y="79.41" width="151.51" height="115.39" rx="14.03"/><path class="cls-1" d="M138.81,145l.63,1c.72,1.13,2.82,1.06,4.67-.14l74.52-48.39c1.86-1.2,2.77-3.09,2.05-4.21l-.63-1c-.72-1.13-2.82-1.06-4.67.14l-74.52,48.39C139,141.93,138.09,143.82,138.81,145Z"/><path class="cls-1" d="M143.16,144.84l-.63,1c-.72,1.13-2.81,1.06-4.67-.14L63.34,97.27c-1.85-1.2-2.77-3.09-2-4.21l.62-1c.73-1.13,2.82-1.06,4.67.14l74.52,48.39C143,141.82,143.88,143.71,143.16,144.84Z"/><path class="cls-1" d="M230,190.29l-.63,1c-.72,1.13-2.81,1.06-4.67-.15l-74.52-48.38c-1.85-1.2-2.77-3.09-2-4.22l.62-1c.73-1.13,2.82-1.06,4.68.14l74.51,48.38C229.77,187.28,230.69,189.17,230,190.29Z"/><path class="cls-1" d="M51.54,189.86l.63,1c.73,1.13,2.82,1.06,4.67-.14l74.52-48.39c1.86-1.2,2.77-3.09,2-4.22l-.63-1c-.72-1.13-2.81-1.06-4.67.14L53.59,185.65C51.74,186.85,50.82,188.74,51.54,189.86Z"/></svg>
