<svg id="Lag_1" data-name="Lag 1" xmlns="http://www.w3.org/2000/svg" viewBox="0 0 283.46 283.46"><defs><style>.cls-1{fill:#fff;}</style></defs><title>telefon</title><rect class="cls-1" x="-0.02" y="-0.01" width="283.46" height="283.46"/><rect x="114.93" y="65.83" width="21.46" height="48.27" rx="5.67" transform="translate(-28.4 77.73) rotate(-31.06)"/><rect x="168.09" y="158.33" width="21.46" height="48.27" rx="5.67" transform="translate(-68.51 118.42) rotate(-31.06)"/><path d="M102.74,79l20.92,35.51a17.55,17.55,0,0,0-5.23,6.32c-1.13,2.34-2,5.56-1.31,11.54a50.94,50.94,0,0,0,6.54,19.39c5,8.84,10.41,18.34,20.69,20.7a23.49,23.49,0,0,0,12.2-.66l21.35,36.39c-4,2.77-12.64,7.86-21.57,5.44-2.66-.72-4.61-1.91-7.84-3.92A82.83,82.83,0,0,1,133,197.33a165.3,165.3,0,0,1-44.87-81.69,96.9,96.9,0,0,1-1.09-13.07c-.1-6.86.6-9.11,1.3-10.68a20.57,20.57,0,0,1,5-6.53A32.74,32.74,0,0,1,102.74,79Z"/></svg>
